<?xml version="1.0" standalone="no"?>
<!DOCTYPE svg PUBLIC "-//W3C//DTD SVG 20010904//EN"
 "http://www.w3.org/TR/2001/REC-SVG-20010904/DTD/svg10.dtd">
<svg version="1.0" xmlns="http://www.w3.org/2000/svg"
 width="872.000000pt" height="872.000000pt" viewBox="0 0 872.000000 872.000000"
 preserveAspectRatio="xMidYMid meet">
<metadata>
Created by potrace 1.14, written by Peter Selinger 2001-2017
</metadata>
<g transform="translate(0.000000,872.000000) scale(0.100000,-0.100000)"
fill="#000000" stroke="none">
<path d="M3891 8694 c-17 -14 -36 -43 -42 -65 -23 -75 -10 -93 230 -333 l220
-220 61 -4 61 -5 225 224 c246 245 258 263 235 338 -6 22 -25 51 -42 65 l-31
26 -443 0 -443 0 -31 -26z"/>
<path d="M3283 8521 c-64 -40 -68 -55 -68 -261 0 -181 1 -186 28 -245 25 -53
87 -120 540 -572 546 -546 532 -533 615 -518 32 6 103 73 545 513 451 451 511
514 540 572 l32 65 0 185 c0 162 -2 189 -18 213 -37 57 -117 83 -170 56 -12
-6 -218 -206 -457 -445 -254 -252 -447 -438 -465 -444 -72 -27 -67 -31 -547
447 l-446 446 -49 4 c-36 3 -56 -1 -80 -16z"/>
<path d="M3319 7390 c-94 -28 -104 -53 -104 -270 0 -273 -56 -192 564 -812
l526 -528 60 0 60 0 526 528 c473 473 528 532 544 577 22 65 33 339 15 404
-14 53 -45 86 -94 99 -79 22 -77 24 -546 -443 -239 -238 -445 -438 -457 -444
-30 -15 -69 -14 -101 3 -15 8 -216 204 -447 436 -231 232 -431 427 -445 434
-37 19 -72 25 -101 16z"/>
<path d="M1386 6629 c-53 -42 -71 -112 -42 -167 8 -15 207 -218 441 -452 249
-248 433 -439 441 -458 34 -77 40 -68 -436 -547 -241 -242 -443 -450 -449
-462 -26 -50 -6 -122 45 -162 25 -20 39 -21 223 -21 189 0 198 1 251 26 47 21
133 103 567 537 446 446 513 517 518 549 15 83 27 69 -518 615 -434 434 -520
516 -567 537 -53 25 -62 26 -251 26 -184 0 -198 -1 -223 -21z"/>
<path d="M2538 6634 c-15 -8 -35 -28 -43 -44 -18 -34 -20 -102 -4 -133 6 -12
207 -219 448 -460 l436 -437 0 -55 0 -55 -442 -442 c-468 -470 -474 -476 -453
-547 27 -94 45 -101 273 -101 142 0 194 4 233 16 44 15 100 67 577 543 l527
526 0 60 0 60 -527 526 c-477 476 -533 528 -577 543 -69 22 -407 23 -448 0z"/>
<path d="M5740 6633 c-39 -13 -121 -91 -572 -542 l-528 -526 0 -60 0 -60 528
-526 c476 -476 532 -528 576 -543 39 -12 91 -16 233 -16 228 0 246 7 273 101
21 71 15 77 -451 544 -460 462 -461 463 -445 532 5 19 151 172 446 468 465
467 470 474 450 544 -27 95 -45 101 -277 100 -141 0 -199 -4 -233 -16z"/>
<path d="M6870 6624 c-47 -21 -133 -103 -557 -527 -277 -276 -510 -516 -518
-533 -22 -47 -18 -85 14 -135 16 -24 249 -263 517 -531 412 -410 498 -491 544
-512 53 -25 62 -26 251 -26 184 0 198 1 223 21 51 40 71 112 45 162 -6 12
-204 216 -440 452 -299 300 -433 442 -444 468 -31 74 -31 73 440 547 238 239
438 445 444 457 26 50 6 122 -45 162 -25 20 -39 21 -223 21 -189 0 -198 -1
-251 -26z"/>
<path d="M1214 6011 c-67 -41 -64 -20 -64 -507 l0 -442 25 -31 c32 -37 84 -55
133 -46 31 6 71 40 250 218 118 117 220 225 229 241 10 20 14 46 10 79 -4 49
-5 50 -218 264 -118 118 -226 221 -241 229 -37 19 -87 18 -124 -5z"/>
<path d="M7395 6016 c-16 -8 -128 -112 -247 -233 l-218 -219 0 -48 c0 -26 6
-59 14 -74 8 -15 110 -122 228 -239 182 -181 219 -212 251 -218 52 -10 106 12
134 54 l23 34 0 434 c0 429 0 435 -21 465 -38 52 -105 70 -164 44z"/>
<path d="M3779 4703 c-620 -621 -564 -540 -564 -813 0 -194 8 -225 65 -255 34
-18 102 -20 133 -4 12 6 219 207 460 448 l437 436 55 0 55 0 437 -436 c241
-241 448 -442 460 -448 31 -16 99 -14 133 4 52 27 64 65 68 211 5 156 -10 264
-43 319 -13 22 -255 271 -537 553 l-513 512 -60 0 -60 0 -526 -527z"/>
<path d="M4304 4074 c-16 -8 -256 -241 -531 -517 -442 -442 -505 -509 -530
-562 -27 -59 -28 -64 -28 -245 0 -162 2 -189 18 -213 37 -57 117 -83 170 -56
12 6 220 208 462 449 337 335 447 439 470 443 72 13 70 14 530 -443 242 -241
450 -443 462 -449 53 -27 133 -1 170 56 16 24 18 50 18 213 0 173 -2 189 -24
240 -21 48 -90 121 -530 562 -278 279 -520 515 -537 523 -40 19 -80 19 -120
-1z"/>
<path d="M3779 2413 c-620 -621 -564 -540 -564 -813 0 -218 10 -243 106 -270
71 -21 77 -15 547 453 l442 442 55 0 55 0 442 -442 c466 -464 472 -469 544
-455 41 7 72 30 92 66 14 26 17 60 17 206 0 272 56 191 -564 813 l-526 527
-60 0 -60 0 -526 -527z"/>
<path d="M4289 1771 c-24 -16 -263 -249 -531 -517 -427 -429 -490 -496 -515
-549 -27 -59 -28 -64 -28 -245 0 -162 2 -189 18 -213 31 -47 75 -69 131 -64
l48 4 437 436 c296 297 448 441 473 452 76 31 66 39 543 -435 242 -241 450
-443 462 -449 53 -27 133 -1 170 56 16 24 18 50 18 213 -1 172 -2 189 -24 240
-21 48 -89 120 -530 562 -278 279 -520 515 -537 523 -47 22 -85 18 -135 -14z"/>
<path d="M4083 428 c-245 -244 -257 -261 -234 -337 6 -22 25 -51 42 -65 l31
-26 443 0 443 0 31 26 c17 14 36 43 42 65 23 75 11 93 -234 337 l-223 222 -59
0 -58 0 -224 -222z"/>
</g>
</svg>
